<svg width="300" height="250" xmlns="http://www.w3.org/2000/svg">
  <defs>
    <linearGradient id="gradBrows4" x1="0%" y1="0%" x2="100%" y2="100%">
      <stop offset="0%" style="stop-color:#FFD3B6;stop-opacity:1" />
      <stop offset="100%" style="stop-color:#E8B4CB;stop-opacity:1" />
    </linearGradient>
  </defs>
  
  <!-- Фон -->
  <rect width="100%" height="100%" fill="url(#gradBrows4)" opacity="0.1"/>
  
  <!-- Лицо -->
  <ellipse cx="150" cy="125" rx="80" ry="100" fill="#FFE4E1" stroke="#FFB5C2" stroke-width="2"/>
  
  <!-- Глаза -->
  <ellipse cx="120" cy="100" rx="15" ry="10" fill="#4169E1"/>
  <ellipse cx="180" cy="100" rx="15" ry="10" fill="#4169E1"/>
  
  <!-- Естественные брови -->
  <path d="M 100 80 Q 120 78 140 80" stroke="#8B4513" stroke-width="4" fill="none"/>
  <path d="M 160 80 Q 180 78 200 80" stroke="#8B4513" stroke-width="4" fill="none"/>
  
  <!-- Легкие волоски -->
  <path d="M 105 78 Q 110 76 115 78" stroke="#8B4513" stroke-width="1" fill="none"/>
  <path d="M 125 78 Q 130 76 135 78" stroke="#8B4513" stroke-width="1" fill="none"/>
  <path d="M 165 78 Q 170 76 175 78" stroke="#8B4513" stroke-width="1" fill="none"/>
  <path d="M 185 78 Q 190 76 195 78" stroke="#8B4513" stroke-width="1" fill="none"/>
  
  <!-- Нос -->
  <ellipse cx="150" cy="125" rx="8" ry="12" fill="#FFE4E1"/>
  
  <!-- Рот -->
  <path d="M 135 150 Q 150 160 165 150" stroke="#FF69B4" stroke-width="2" fill="none"/>
  
  <!-- Текст -->
  <text x="50%" y="220" font-family="Arial, sans-serif" font-size="14" fill="#666" text-anchor="middle">Естественные</text>
</svg>
